<svg width="200" height="61" viewBox="0 0 200 61" fill="none" xmlns="http://www.w3.org/2000/svg">
<g id="download-on-the-app-store-apple-logo-svgrepo-com 1" clip-path="url(#clip0_10_6850)">
<g id="Group">
<path id="Vector" d="M198.726 53.3276C198.726 54.0847 198.579 54.8345 198.293 55.5339C198.008 56.2333 197.589 56.8688 197.061 57.4039C196.533 57.939 195.906 58.3632 195.217 58.6524C194.527 58.9416 193.788 59.0901 193.042 59.0893H7.01158C5.5038 59.0909 4.05712 58.4848 2.98971 57.4043C1.92229 56.3238 1.32155 54.8574 1.31958 53.3276V7.37991C1.32154 5.84939 1.92205 4.38221 2.98926 3.30053C4.05646 2.21885 5.50311 1.61108 7.01158 1.61069H193.04C193.787 1.61069 194.526 1.75992 195.216 2.04987C195.906 2.33982 196.532 2.7648 197.06 3.30054C197.588 3.83629 198.007 4.47229 198.292 5.17224C198.578 5.87218 198.725 6.62236 198.725 7.37991L198.726 53.3276Z" fill="white"/>
<path id="Vector_2" d="M193.042 60.4297H7.01158C5.15417 60.4293 3.37277 59.6813 2.05827 58.3498C0.743765 57.0183 0.00353415 55.2122 0 53.3276L0 7.3814C0.00274777 5.49589 0.74249 3.68847 2.05695 2.35563C3.37141 1.02279 5.15324 0.273381 7.01158 0.27179L193.04 0.27179C194.898 0.274175 196.68 1.02384 197.994 2.35651C199.308 3.68917 200.048 5.49613 200.052 7.3814V53.3276C200.055 57.2449 196.904 60.4297 193.042 60.4297Z" fill="#A6A6A6"/>
<path id="Vector_3" d="M198.726 53.3276C198.726 54.0847 198.579 54.8345 198.293 55.5339C198.008 56.2333 197.589 56.8688 197.061 57.4039C196.533 57.939 195.906 58.3632 195.217 58.6524C194.527 58.9416 193.788 59.0901 193.042 59.0893H7.01158C5.5038 59.0909 4.05712 58.4848 2.98971 57.4043C1.92229 56.3238 1.32155 54.8574 1.31958 53.3276V7.37991C1.32154 5.84939 1.92205 4.38221 2.98926 3.30053C4.05646 2.21885 5.50311 1.61108 7.01158 1.61069H193.04C193.787 1.61069 194.526 1.75992 195.216 2.04987C195.906 2.33982 196.532 2.7648 197.06 3.30054C197.588 3.83629 198.007 4.47229 198.292 5.17224C198.578 5.87218 198.725 6.62236 198.725 7.37991L198.726 53.3276Z" fill="black"/>
<path id="Vector_4" d="M44.6701 30.0341C44.6271 25.1855 48.5829 22.8267 48.7638 22.7169C46.5235 19.4028 43.0511 18.95 41.8308 18.9138C38.9144 18.6024 36.0854 20.6845 34.5998 20.6845C33.0845 20.6845 30.7967 18.9439 28.331 18.9951C25.1581 19.0447 22.1898 20.9086 20.5618 23.803C17.2021 29.7046 19.7078 38.3773 22.9267 43.1476C24.5369 45.4854 26.4184 48.0924 28.8811 48.0007C31.2905 47.9014 32.1904 46.4437 35.098 46.4437C37.9788 46.4437 38.8239 48.0007 41.3356 47.942C43.9214 47.9014 45.5494 45.5952 47.1032 43.2379C48.964 40.5616 49.7112 37.923 49.7409 37.7876C49.6816 37.7665 44.7205 35.8439 44.6701 30.0341ZM39.9256 15.7758C41.2214 14.1315 42.1081 11.8945 41.8619 9.62442C39.9864 9.70866 37.6408 10.9407 36.29 12.5489C35.095 13.966 34.0275 16.2887 34.3033 18.4731C36.4101 18.6325 38.5734 17.3944 39.9256 15.7758Z" fill="white"/>
<path id="Vector_5" d="M193.042 0.27179H93.3983L132.427 60.4297H193.042C194.899 60.4281 196.681 59.6791 197.995 58.3469C199.31 57.0147 200.05 55.2081 200.053 53.3231V7.3814C200.05 5.49601 199.31 3.68882 197.996 2.35607C196.681 1.02332 194.9 0.273778 193.042 0.27179Z" fill="url(#paint0_linear_10_6850)"/>
<g id="Group_2">
<path id="Vector_6" d="M79.5679 47.6652H76.2008L74.3563 41.7846H67.9452L66.1882 47.6652H62.91L69.2633 27.6451H73.1865L79.5679 47.6652ZM73.8003 39.3175L72.1323 34.0898C71.9558 33.5558 71.6237 32.2981 71.1374 30.3184H71.0781C70.8824 31.1699 70.5695 32.4275 70.141 34.0898L68.5012 39.3175H73.8003ZM95.8744 40.2697C95.8744 42.7249 95.2176 44.6655 93.9024 46.0901C92.7252 47.3583 91.2618 47.9916 89.5167 47.9916C87.6322 47.9916 86.277 47.3101 85.4541 45.9442V53.5186H82.2931V37.9741C82.2931 36.4321 82.253 34.851 82.1759 33.2293H84.956L85.1324 35.5175H85.1917C86.2459 33.7935 87.8457 32.9315 89.9926 32.9315C91.671 32.9315 93.0721 33.6039 94.193 34.9503C95.3125 36.2997 95.8744 38.0719 95.8744 40.2697ZM92.654 40.3871C92.654 38.982 92.3427 37.8236 91.717 36.9105C91.0335 35.9612 90.1157 35.4859 88.9651 35.4859C88.1852 35.4859 87.4765 35.7506 86.8434 36.2727C86.2088 36.7992 85.7937 37.4867 85.5994 38.3381C85.5127 38.6566 85.4635 38.9843 85.4527 39.3145V41.723C85.4527 42.7715 85.7699 43.6576 86.4045 44.3827C87.0391 45.1048 87.8635 45.4673 88.8776 45.4673C90.0682 45.4673 90.9949 44.9994 91.6577 44.0713C92.3219 43.1401 92.654 41.9125 92.654 40.3871ZM112.239 40.2697C112.239 42.7249 111.582 44.6655 110.267 46.0901C109.088 47.3583 107.626 47.9916 105.879 47.9916C103.995 47.9916 102.64 47.3101 101.817 45.9442V53.5186H98.6559V37.9741C98.6559 36.4321 98.6159 34.851 98.5388 33.2293H101.319L101.495 35.5175H101.555C102.607 33.7935 104.207 32.9315 106.355 32.9315C108.032 32.9315 109.433 33.6039 110.557 34.9503C111.675 36.2997 112.239 38.0719 112.239 40.2697ZM109.017 40.3871C109.017 38.982 108.704 37.8236 108.078 36.9105C107.395 35.9612 106.48 35.4859 105.329 35.4859C104.55 35.4859 103.841 35.7506 103.205 36.2727C102.57 36.7992 102.156 37.4867 101.962 38.3381C101.866 38.7353 101.814 39.0587 101.814 39.3145V41.723C101.814 42.7715 102.133 43.6576 102.764 44.3827C103.399 45.1033 104.223 45.4673 105.24 45.4673C106.433 45.4673 107.359 44.9994 108.02 44.0713C108.685 43.1401 109.017 41.9125 109.017 40.3871ZM130.535 42.0494C130.535 43.7538 129.948 45.1394 128.781 46.209C127.497 47.3763 125.704 47.9615 123.406 47.9615C121.283 47.9615 119.581 47.5463 118.297 46.7144L119.028 44.0412C120.414 44.8746 121.937 45.2898 123.595 45.2898C124.787 45.2898 125.713 45.016 126.375 44.4729C127.037 43.9283 127.372 43.2002 127.372 42.2916C127.372 41.4777 127.095 40.7963 126.551 40.2412C126.004 39.6876 125.099 39.1716 123.829 38.6977C120.374 37.3904 118.645 35.4784 118.645 32.9631C118.645 31.3203 119.256 29.9754 120.475 28.9238C121.694 27.8738 123.31 27.3488 125.32 27.3488C127.116 27.3488 128.612 27.6662 129.8 28.2995L129.006 30.9141C127.888 30.3003 126.627 29.9935 125.215 29.9935C124.1 29.9935 123.225 30.2718 122.6 30.8254C122.073 31.3203 121.806 31.9235 121.806 32.6396C121.806 33.4294 122.11 34.0853 122.715 34.5998C123.24 35.0737 124.198 35.5897 125.583 36.1433C127.282 36.8383 128.53 37.6476 129.33 38.5773C130.135 39.507 130.535 40.6669 130.535 42.0494ZM141.013 35.6363H137.529V42.6451C137.529 44.4278 138.143 45.3169 139.373 45.3169C139.938 45.3169 140.407 45.2687 140.777 45.1679L140.865 47.6035C140.242 47.8397 139.422 47.9585 138.406 47.9585C137.158 47.9585 136.182 47.5719 135.478 46.7987C134.777 46.0254 134.424 44.7302 134.424 42.9069V35.6303H132.348V33.2233H134.424V30.5802L137.529 29.6294V33.2233H141.013V35.6363ZM156.703 40.3284C156.703 42.5473 156.077 44.3691 154.829 45.7938C153.522 47.2605 151.785 47.9916 149.618 47.9916C147.528 47.9916 145.866 47.2891 144.626 45.8855C143.387 44.4789 142.767 42.7068 142.767 40.5691C142.767 38.3321 143.408 36.4998 144.684 35.0752C145.964 33.649 147.687 32.936 149.853 32.936C151.94 32.936 153.617 33.64 154.886 35.0451C156.099 36.408 156.703 38.1681 156.703 40.3284ZM153.426 40.4021C153.426 39.0798 153.144 37.9455 152.579 36.9963C151.917 35.8499 150.968 35.2768 149.739 35.2768C148.472 35.2768 147.501 35.8499 146.84 36.9963C146.274 37.9455 145.992 39.0993 145.992 40.4623C145.992 41.7861 146.274 42.9234 146.84 43.8697C147.523 45.016 148.477 45.5892 149.712 45.5892C150.92 45.5892 151.868 45.004 152.553 43.8411C153.134 42.8693 153.426 41.7275 153.426 40.4021ZM166.982 36.05C166.653 35.9898 166.32 35.9601 165.986 35.9613C164.874 35.9613 164.014 36.3855 163.409 37.24C162.884 37.9921 162.62 38.9429 162.62 40.0907V47.6652H159.459V37.7755C159.462 36.2601 159.431 34.7448 159.367 33.2308H162.12L162.236 35.9928H162.324C162.659 35.0436 163.183 34.2779 163.904 33.7047C164.564 33.2039 165.365 32.9327 166.189 32.9315C166.481 32.9315 166.745 32.9525 166.979 32.9901L166.982 36.05ZM181.119 39.7643C181.127 40.2518 181.089 40.739 181.004 41.219H171.521C171.556 42.6451 172.016 43.7373 172.896 44.4895C173.696 45.1604 174.729 45.4974 175.998 45.4974C177.402 45.4974 178.683 45.2717 179.835 44.8159L180.331 47.0409C178.984 47.6366 177.395 47.933 175.561 47.933C173.355 47.933 171.623 47.274 170.363 45.9592C169.105 44.6429 168.475 42.8738 168.475 40.6579C168.475 38.4826 169.061 36.6698 170.234 35.2241C171.461 33.6806 173.12 32.9089 175.208 32.9089C177.259 32.9089 178.811 33.6806 179.865 35.2241C180.7 36.4472 181.119 37.9636 181.119 39.7643ZM178.105 38.9324C178.127 37.9801 177.92 37.1602 177.491 36.4667C176.944 35.5731 176.102 35.1278 174.974 35.1278C173.94 35.1278 173.098 35.5626 172.458 36.4351C171.931 37.1286 171.618 37.9621 171.522 38.9294L178.105 38.9324Z" fill="white"/>
</g>
<g id="Group_3">
<path id="Vector_7" d="M67.0333 20.5671C66.1541 20.5671 65.3935 20.5235 64.7604 20.4498V10.7707C65.6458 10.632 66.5406 10.5636 67.4366 10.5661C71.0618 10.5661 72.7312 12.3759 72.7312 15.3259C72.7312 18.7288 70.7593 20.5671 67.0333 20.5671ZM67.5641 11.8072C67.0748 11.8072 66.6582 11.8373 66.3127 11.9095V19.2674C66.4996 19.2975 66.8584 19.311 67.3625 19.311C69.7377 19.311 71.0899 17.939 71.0899 15.3696C71.0899 13.0784 69.8667 11.8072 67.5641 11.8072ZM77.934 20.6409C75.8908 20.6409 74.5668 19.0929 74.5668 16.9913C74.5668 14.8009 75.919 13.2394 78.0496 13.2394C80.0631 13.2394 81.4168 14.7137 81.4168 16.8754C81.4168 19.0929 80.0216 20.6409 77.934 20.6409ZM77.9933 14.3917C76.8709 14.3917 76.1518 15.4568 76.1518 16.9461C76.1518 18.4069 76.8857 19.472 77.9784 19.472C79.0712 19.472 79.8051 18.3332 79.8051 16.9161C79.8051 15.4719 79.086 14.3917 77.9933 14.3917ZM93.0676 13.3853L90.8807 20.4799H89.4558L88.5499 17.399C88.3247 16.6453 88.1371 15.8806 87.988 15.1078H87.9583C87.8442 15.8811 87.6277 16.6558 87.3979 17.399L86.4341 20.4799H84.9945L82.9365 13.3853H84.5333L85.3251 16.7581C85.5119 17.5614 85.6691 18.3196 85.7996 19.0357H85.8292C85.9434 18.4385 86.1302 17.6923 86.4045 16.7731L87.3979 13.3868H88.6641L89.6145 16.7009C89.8443 17.5043 90.0311 18.2925 90.1764 19.0372H90.2179C90.3188 18.3076 90.4774 17.5328 90.6924 16.7009L91.542 13.3868L93.0676 13.3853ZM101.119 20.4799H99.5647V16.4061C99.5647 15.1514 99.0903 14.5226 98.1547 14.5226C97.234 14.5226 96.6009 15.3259 96.6009 16.2602V20.4799H95.047V15.4132C95.047 14.7859 95.0322 14.1134 94.9892 13.3838H96.3562L96.4289 14.479H96.4719C96.89 13.7208 97.7381 13.2394 98.6885 13.2394C100.156 13.2394 101.12 14.3782 101.12 16.2316L101.119 20.4799ZM105.404 20.4799H103.848V10.1299H105.404V20.4799ZM111.069 20.6409C109.027 20.6409 107.702 19.0929 107.702 16.9913C107.702 14.8009 109.054 13.2394 111.183 13.2394C113.198 13.2394 114.55 14.7137 114.55 16.8754C114.552 19.0929 113.155 20.6409 111.069 20.6409ZM111.127 14.3917C110.004 14.3917 109.285 15.4568 109.285 16.9461C109.285 18.4069 110.021 19.472 111.11 19.472C112.205 19.472 112.937 18.3332 112.937 16.9161C112.938 15.4719 112.221 14.3917 111.127 14.3917ZM120.677 20.4799L120.564 19.663H120.522C120.048 20.3204 119.355 20.6409 118.478 20.6409C117.225 20.6409 116.335 19.7503 116.335 18.5528C116.335 16.8017 117.831 15.8961 120.422 15.8961V15.7652C120.422 14.831 119.934 14.3632 118.97 14.3632C118.281 14.3632 117.676 14.5392 117.143 14.8897L116.828 13.8532C117.474 13.444 118.281 13.2394 119.228 13.2394C121.055 13.2394 121.977 14.2172 121.977 16.1744V18.7875C121.977 19.5036 122.008 20.0587 122.078 20.4814L120.677 20.4799ZM120.463 16.9461C118.737 16.9461 117.871 17.3704 117.871 18.3768C117.871 19.1214 118.318 19.4855 118.937 19.4855C119.728 19.4855 120.463 18.8732 120.463 18.0413V16.9461ZM129.522 20.4799L129.45 19.3411H129.407C128.96 20.2016 128.21 20.6409 127.162 20.6409C125.476 20.6409 124.228 19.1365 124.228 17.0199C124.228 14.8009 125.522 13.2379 127.289 13.2379C128.225 13.2379 128.888 13.5583 129.261 14.2022H129.292V10.1299H130.848V18.5678C130.848 19.2538 130.864 19.8962 130.906 20.4799H129.522ZM129.292 16.3053C129.292 15.3124 128.644 14.4655 127.656 14.4655C126.503 14.4655 125.799 15.502 125.799 16.9612C125.799 18.3918 126.53 19.3712 127.624 19.3712C128.601 19.3712 129.292 18.5092 129.292 17.4877V16.3053ZM140.709 20.6409C138.667 20.6409 137.343 19.0929 137.343 16.9913C137.343 14.8009 138.696 13.2394 140.825 13.2394C142.84 13.2394 144.192 14.7137 144.192 16.8754C144.193 19.0929 142.798 20.6409 140.709 20.6409ZM140.767 14.3917C139.646 14.3917 138.927 15.4568 138.927 16.9461C138.927 18.4069 139.661 19.472 140.752 19.472C141.846 19.472 142.579 18.3332 142.579 16.9161C142.582 15.4719 141.863 14.3917 140.767 14.3917ZM152.548 20.4799H150.993V16.4061C150.993 15.1514 150.518 14.5226 149.583 14.5226C148.662 14.5226 148.03 15.3259 148.03 16.2602V20.4799H146.475V15.4132C146.475 14.7859 146.46 14.1134 146.417 13.3838H147.784L147.857 14.479H147.9C148.317 13.7208 149.166 13.2379 150.115 13.2379C151.583 13.2379 152.548 14.3767 152.548 16.2301V20.4799ZM163.003 14.5677H161.293V18.0127C161.293 18.8898 161.593 19.3275 162.197 19.3275C162.472 19.3275 162.702 19.2975 162.887 19.2538L162.93 20.4513C162.629 20.5686 162.226 20.6273 161.724 20.6273C160.5 20.6273 159.767 19.9413 159.767 18.1451V14.5677H158.747V13.3853H159.767V12.0856L161.293 11.6177V13.3838H163.003V14.5677ZM171.228 20.4799H169.676V16.4362C169.676 15.1665 169.203 14.5241 168.266 14.5241C167.461 14.5241 166.711 15.0792 166.711 16.203V20.4799H165.158V10.1299H166.711V14.3917H166.742C167.231 13.6185 167.94 13.2379 168.844 13.2379C170.324 13.2379 171.228 14.4053 171.228 16.2602V20.4799ZM179.656 17.3117H174.993C175.023 18.6551 175.899 19.4133 177.196 19.4133C177.886 19.4133 178.52 19.296 179.081 19.0778L179.322 20.173C178.661 20.4648 177.883 20.6108 176.977 20.6108C174.79 20.6108 173.495 19.2087 173.495 17.0349C173.495 14.8596 174.821 13.2244 176.802 13.2244C178.588 13.2244 179.709 14.5677 179.709 16.5971C179.719 16.8366 179.701 17.0765 179.656 17.3117ZM178.231 16.1879C178.231 15.0928 177.687 14.3195 176.694 14.3195C175.801 14.3195 175.095 15.1078 174.994 16.1879H178.231Z" fill="white"/>
</g>
</g>
</g>
<defs>
<linearGradient id="paint0_linear_10_6850" x1="146.724" y1="60.5894" x2="146.724" y2="-156.369" gradientUnits="userSpaceOnUse">
<stop stop-color="#1A1A1A" stop-opacity="0.1"/>
<stop offset="0.123" stop-color="#212121" stop-opacity="0.151"/>
<stop offset="0.308" stop-color="#353535" stop-opacity="0.227"/>
<stop offset="0.532" stop-color="#575757" stop-opacity="0.318"/>
<stop offset="0.783" stop-color="#858585" stop-opacity="0.421"/>
<stop offset="1" stop-color="#B3B3B3" stop-opacity="0.51"/>
</linearGradient>
<clipPath id="clip0_10_6850">
<rect width="200" height="60" fill="white" transform="translate(0 0.349976)"/>
</clipPath>
</defs>
</svg>
