<svg width="200" height="61" viewBox="0 0 200 61" fill="none" xmlns="http://www.w3.org/2000/svg">
<g id="google-play-badge-logo-svgrepo-com 1" clip-path="url(#clip0_10_6861)">
<path id="Vector" d="M192.593 60.4893H7.40741C3.25926 60.4893 0 57.2027 0 53.0197V8.20174C0 4.01873 3.25926 0.732086 7.40741 0.732086H192.593C196.741 0.732086 200 4.01873 200 8.20174V53.0197C200 57.2027 196.741 60.4893 192.593 60.4893Z" fill="black"/>
<path id="Vector_2" d="M192.593 1.92723C196 1.92723 198.815 4.7657 198.815 8.20174V53.0197C198.815 56.4557 196 59.2942 192.593 59.2942H7.40741C4 59.2942 1.18519 56.4557 1.18519 53.0197V8.20174C1.18519 4.7657 4 1.92723 7.40741 1.92723H192.593ZM192.593 0.732086H7.40741C3.25926 0.732086 0 4.16813 0 8.20174V53.0197C0 57.2027 3.25926 60.4893 7.40741 60.4893H192.593C196.741 60.4893 200 57.2027 200 53.0197V8.20174C200 4.16813 196.741 0.732086 192.593 0.732086Z" fill="#A6A6A6"/>
<path id="Vector_3" d="M70.2223 15.9702C70.2223 17.1653 69.926 18.2111 69.1852 18.9581C68.2963 19.8544 67.2593 20.3026 65.926 20.3026C64.5926 20.3026 63.5556 19.8544 62.6667 18.9581C61.7778 18.0617 61.3334 17.0159 61.3334 15.6714C61.3334 14.3269 61.7778 13.2811 62.6667 12.3848C63.5556 11.4884 64.5926 11.0402 65.926 11.0402C66.5186 11.0402 67.1112 11.1896 67.7037 11.4884C68.2963 11.7872 68.7408 12.086 69.0371 12.5342L68.2963 13.2811C67.7037 12.5342 66.963 12.2354 65.926 12.2354C65.0371 12.2354 64.1482 12.5342 63.5556 13.2811C62.8149 13.8787 62.5186 14.775 62.5186 15.8208C62.5186 16.8666 62.8149 17.7629 63.5556 18.3605C64.2963 18.9581 65.0371 19.4062 65.926 19.4062C66.963 19.4062 67.7037 19.1074 68.4445 18.3605C68.8889 17.9123 69.1852 17.3147 69.1852 16.5678H65.926V15.3726H70.2223V15.9702ZM77.0371 12.2354H73.0371V15.0738H76.7408V16.1196H73.0371V18.9581H77.0371V20.1532H71.8519V11.1896H77.0371V12.2354ZM82.3788 20.1532H81.1936V12.2354H78.675V11.1896H84.8973V12.2354H82.3788V20.1532ZM88.7408 20.1532V11.1896H89.926V20.1532H88.7408ZM95.1577 20.1532H94.1206V12.2354H91.6021V11.1896H97.6762V12.2354H95.1577V20.1532ZM109.037 18.9581C108.148 19.8544 107.111 20.3026 105.778 20.3026C104.444 20.3026 103.407 19.8544 102.519 18.9581C101.63 18.0617 101.185 17.0159 101.185 15.6714C101.185 14.3269 101.63 13.2811 102.519 12.3848C103.407 11.4884 104.444 11.0402 105.778 11.0402C107.111 11.0402 108.148 11.4884 109.037 12.3848C109.926 13.2811 110.37 14.3269 110.37 15.6714C110.37 17.0159 109.926 18.0617 109.037 18.9581ZM103.407 18.2111C104 18.8087 104.889 19.2568 105.778 19.2568C106.667 19.2568 107.556 18.9581 108.148 18.2111C108.741 17.6135 109.185 16.7172 109.185 15.6714C109.185 14.6257 108.889 13.7293 108.148 13.1317C107.556 12.5342 106.667 12.086 105.778 12.086C104.889 12.086 104 12.3848 103.407 13.1317C102.815 13.7293 102.37 14.6257 102.37 15.6714C102.37 16.7172 102.667 17.6135 103.407 18.2111ZM112 20.1532V11.1896H113.333L117.63 18.2111V11.1896H118.815V20.1532H117.63L113.037 12.8329V20.1532H112Z" fill="white" stroke="white" stroke-width="1.18519" stroke-miterlimit="10"/>
<path id="Vector_4" d="M100.889 33.2998C97.3334 33.2998 94.5185 35.9889 94.5185 39.7237C94.5185 43.3091 97.3334 46.1476 100.889 46.1476C104.444 46.1476 107.259 43.4585 107.259 39.7237C107.259 35.8395 104.444 33.2998 100.889 33.2998ZM100.889 43.4585C98.963 43.4585 97.3334 41.8152 97.3334 39.5743C97.3334 37.3334 98.963 35.6901 100.889 35.6901C102.815 35.6901 104.444 37.184 104.444 39.5743C104.444 41.8152 102.815 43.4585 100.889 43.4585ZM87.1111 33.2998C83.5556 33.2998 80.7408 35.9889 80.7408 39.7237C80.7408 43.3091 83.5556 46.1476 87.1111 46.1476C90.6667 46.1476 93.4815 43.4585 93.4815 39.7237C93.4815 35.8395 90.6667 33.2998 87.1111 33.2998ZM87.1111 43.4585C85.1852 43.4585 83.5556 41.8152 83.5556 39.5743C83.5556 37.3334 85.1852 35.6901 87.1111 35.6901C89.0371 35.6901 90.6667 37.184 90.6667 39.5743C90.6667 41.8152 89.0371 43.4585 87.1111 43.4585ZM70.6667 35.2419V37.931H77.0371C76.8889 39.4249 76.2963 40.6201 75.5556 41.367C74.6667 42.2634 73.1852 43.3091 70.6667 43.3091C66.6667 43.3091 63.7037 40.1719 63.7037 36.1383C63.7037 32.1047 66.8148 28.9674 70.6667 28.9674C72.7408 28.9674 74.3704 29.8638 75.5556 30.9095L77.4815 28.9674C75.8519 27.4735 73.7778 26.2783 70.8148 26.2783C65.4815 26.2783 60.8889 30.7601 60.8889 36.1383C60.8889 41.5164 65.4815 45.9982 70.8148 45.9982C73.7778 45.9982 75.8519 45.1018 77.6297 43.1597C79.4074 41.367 80 38.8273 80 36.8852C80 36.2877 80 35.6901 79.8519 35.2419H70.6667ZM137.926 37.3334C137.333 35.8395 135.852 33.2998 132.593 33.2998C129.333 33.2998 126.667 35.8395 126.667 39.7237C126.667 43.3091 129.333 46.1476 132.889 46.1476C135.704 46.1476 137.482 44.3549 138.074 43.3091L136 41.8152C135.259 42.861 134.37 43.6079 132.889 43.6079C131.407 43.6079 130.519 43.0103 129.778 41.6658L138.222 38.0804L137.926 37.3334ZM129.333 39.4249C129.333 37.0346 131.259 35.6901 132.593 35.6901C133.63 35.6901 134.667 36.2877 134.963 37.0346L129.333 39.4249ZM122.37 45.55H125.185V26.8759H122.37V45.55ZM117.926 34.6443C117.185 33.8974 116 33.1504 114.519 33.1504C111.407 33.1504 108.444 35.9889 108.444 39.5743C108.444 43.1597 111.259 45.8488 114.519 45.8488C116 45.8488 117.185 45.1019 117.778 44.3549H117.926V45.2512C117.926 47.6415 116.593 48.9861 114.519 48.9861C112.889 48.9861 111.704 47.7909 111.407 46.7452L109.037 47.7909C109.778 49.4342 111.556 51.5258 114.667 51.5258C117.926 51.5258 120.593 49.5836 120.593 44.9525V33.5986H117.926V34.6443ZM114.667 43.4585C112.741 43.4585 111.111 41.8152 111.111 39.5743C111.111 37.3334 112.741 35.6901 114.667 35.6901C116.593 35.6901 118.074 37.3334 118.074 39.5743C118.074 41.8152 116.593 43.4585 114.667 43.4585ZM150.815 26.8759H144.148V45.55H146.963V38.5286H150.815C153.926 38.5286 156.889 36.2877 156.889 32.7022C156.889 29.1168 153.926 26.8759 150.815 26.8759ZM150.963 35.8395H146.963V29.4156H150.963C153.037 29.4156 154.222 31.2083 154.222 32.5528C154.074 34.1962 152.889 35.8395 150.963 35.8395ZM168 33.1504C165.926 33.1504 163.852 34.0468 163.111 35.9889L165.63 37.0346C166.222 35.9889 167.111 35.6901 168.148 35.6901C169.63 35.6901 170.963 36.5864 171.111 38.0804V38.2298C170.667 37.931 169.482 37.4828 168.296 37.4828C165.63 37.4828 162.963 38.9767 162.963 41.6658C162.963 44.2055 165.185 45.8488 167.556 45.8488C169.482 45.8488 170.37 44.9525 171.111 44.0561H171.259V45.55H173.926V38.3792C173.63 35.0925 171.111 33.1504 168 33.1504ZM167.704 43.4585C166.815 43.4585 165.482 43.0103 165.482 41.8152C165.482 40.3213 167.111 39.8731 168.444 39.8731C169.63 39.8731 170.222 40.1719 170.963 40.4707C170.667 42.2634 169.185 43.4585 167.704 43.4585ZM183.259 33.5986L180.148 41.6658H180L176.741 33.5986H173.778L178.667 44.9525L175.852 51.227H178.667L186.222 33.5986H183.259ZM158.37 45.55H161.185V26.8759H158.37V45.55Z" fill="white"/>
<g id="Group">
<path id="Vector_5" d="M15.4074 11.9366C14.963 12.3848 14.8148 13.1317 14.8148 14.0281V47.044C14.8148 47.9403 15.1111 48.6873 15.5556 49.1355L15.7037 49.2849L34.0741 30.7601V30.4613L15.4074 11.9366Z" fill="url(#paint0_linear_10_6861)"/>
<path id="Vector_6" d="M40 37.0346L33.9259 30.9095V30.4613L40 24.3362L40.1481 24.4856L47.4074 28.6686C49.4815 29.8638 49.4815 31.8059 47.4074 33.001L40 37.0346Z" fill="url(#paint1_linear_10_6861)"/>
<path id="Vector_7" d="M40.1482 36.8852L33.926 30.6107L15.4075 49.2849C16.1482 50.0318 17.1852 50.0318 18.5186 49.4342L40.1482 36.8852Z" fill="url(#paint2_linear_10_6861)"/>
<path id="Vector_8" d="M40.1482 24.3362L18.5186 11.9366C17.1852 11.1896 16.1482 11.339 15.4075 12.086L33.926 30.6107L40.1482 24.3362Z" fill="url(#paint3_linear_10_6861)"/>
<path id="Vector_9" opacity="0.2" d="M40.0001 36.7358L18.5186 48.9861C17.3334 49.733 16.2964 49.5836 15.5556 48.9861L15.4075 49.1355L15.5556 49.2849C16.2964 49.8824 17.3334 50.0318 18.5186 49.2849L40.0001 36.7358Z" fill="black"/>
<path id="Vector_10" opacity="0.12" d="M15.4074 48.9861C14.963 48.5379 14.8148 47.7909 14.8148 46.8946V47.044C14.8148 47.9403 15.1111 48.6873 15.5556 49.1355V48.9861H15.4074ZM47.4074 32.5528L40 36.7358L40.1482 36.8852L47.4074 32.7022C48.4444 32.1046 48.8889 31.3577 48.8889 30.6107C48.8889 31.3577 48.2963 31.9553 47.4074 32.5528Z" fill="black"/>
<path id="Vector_11" opacity="0.25" d="M18.5185 12.086L47.4074 28.6686C48.2963 29.2662 48.8889 29.8638 48.8889 30.6107C48.8889 29.8638 48.4444 29.1168 47.4074 28.5192L18.5185 11.9366C16.4444 10.7414 14.8148 11.6378 14.8148 14.0281V14.1775C14.8148 11.9366 16.4444 10.8908 18.5185 12.086Z" fill="white"/>
</g>
</g>
<defs>
<linearGradient id="paint0_linear_10_6861" x1="32.2963" y1="13.7442" x2="7.22455" y2="38.6056" gradientUnits="userSpaceOnUse">
<stop stop-color="#00A0FF"/>
<stop offset="0.007" stop-color="#00A1FF"/>
<stop offset="0.26" stop-color="#00BEFF"/>
<stop offset="0.512" stop-color="#00D2FF"/>
<stop offset="0.76" stop-color="#00DFFF"/>
<stop offset="1" stop-color="#00E3FF"/>
</linearGradient>
<linearGradient id="paint1_linear_10_6861" x1="50.1244" y1="30.6122" x2="14.277" y2="30.6122" gradientUnits="userSpaceOnUse">
<stop stop-color="#FFE000"/>
<stop offset="0.409" stop-color="#FFBD00"/>
<stop offset="0.775" stop-color="#FFA500"/>
<stop offset="1" stop-color="#FF9C00"/>
</linearGradient>
<linearGradient id="paint2_linear_10_6861" x1="36.7808" y1="34.0408" x2="2.78312" y2="67.7552" gradientUnits="userSpaceOnUse">
<stop stop-color="#FF3A44"/>
<stop offset="1" stop-color="#C31162"/>
</linearGradient>
<linearGradient id="paint3_linear_10_6861" x1="10.8104" y1="0.995038" x2="25.9927" y2="16.0508" gradientUnits="userSpaceOnUse">
<stop stop-color="#32A071"/>
<stop offset="0.069" stop-color="#2DA771"/>
<stop offset="0.476" stop-color="#15CF74"/>
<stop offset="0.801" stop-color="#06E775"/>
<stop offset="1" stop-color="#00F076"/>
</linearGradient>
<clipPath id="clip0_10_6861">
<rect width="200" height="60" fill="white" transform="translate(0 0.610718)"/>
</clipPath>
</defs>
</svg>
