<svg width="44" height="44" viewBox="0 0 44 44" fill="none" xmlns="http://www.w3.org/2000/svg">
<rect width="44" height="44" rx="22" fill="#EC694E"/>
<path d="M17.078 31.808C19.786 31.808 21.982 29.612 21.982 26.904C21.982 24.196 19.787 22 17.078 22C14.369 22 12.174 24.196 12.174 26.904" stroke="white" stroke-width="1.5" stroke-linecap="round" stroke-linejoin="round"/>
<path d="M17.083 31.8131C16.345 31.8131 15.646 31.6501 15.018 31.3591L12 32.0001L12.631 28.9761C12.338 28.3461 12.174 27.6441 12.174 26.9041" stroke="white" stroke-width="1.5" stroke-linecap="round" stroke-linejoin="round"/>
<path d="M16.557 22.0281C16.199 21.2071 16 20.3121 16 19.3731C16 15.3561 19.598 12.1331 24 12.1331C28.402 12.1331 32 15.3561 32 19.3731C32 21.7471 30.738 23.8371 28.801 25.1551C28.802 25.9111 28.8 26.9301 28.8 28.0001L25.661 26.4541C25.124 26.5571 24.569 26.6131 24 26.6131C23.293 26.6131 22.607 26.5291 21.953 26.3721" stroke="white" stroke-width="1.5" stroke-linecap="round" stroke-linejoin="round"/>
</svg>
