<svg width="44" height="44" viewBox="0 0 44 44" fill="none" xmlns="http://www.w3.org/2000/svg">
<rect width="44" height="44" rx="22" fill="#8F4BF6"/>
<path d="M14.5069 24.2571C14.0062 24.8936 13.8792 25.7473 14.1727 26.502C14.9731 27.8836 18.2995 27.5024 21.999 25.7467" stroke="white" stroke-width="1.5" stroke-linecap="round" stroke-linejoin="round"/>
<path d="M29.4931 19.7432C29.9932 19.1064 30.1202 18.2531 29.8273 17.4983C29.0269 16.1167 25.7005 16.4979 22.001 18.2536" stroke="white" stroke-width="1.5" stroke-linecap="round" stroke-linejoin="round"/>
<path d="M25.2564 23.8728C24.9382 27.9465 23.6007 31.0038 22 31.0038C21.3427 31.0038 20.7315 30.4816 20.2153 29.5922" stroke="white" stroke-width="1.5" stroke-linecap="round" stroke-linejoin="round"/>
<path d="M16.2916 16.6639C15.4878 16.5503 14.6834 16.8671 14.1727 17.4982C13.3724 18.8798 15.3622 21.5619 18.7436 23.8729" stroke="white" stroke-width="1.5" stroke-linecap="round" stroke-linejoin="round"/>
<path d="M27.7084 27.3364C28.5122 27.45 29.3167 27.1332 29.8273 26.5021C30.6276 25.1205 28.6378 22.4384 25.2564 20.1274" stroke="white" stroke-width="1.5" stroke-linecap="round" stroke-linejoin="round"/>
<path d="M18.7436 20.1273C19.0618 16.0536 20.3993 12.9963 22 12.9963C22.6573 12.9963 23.2685 13.5186 23.7847 14.4079" stroke="white" stroke-width="1.5" stroke-linecap="round" stroke-linejoin="round"/>
</svg>
