<svg width="12" height="12" viewBox="0 0 12 12" fill="none" xmlns="http://www.w3.org/2000/svg">
<circle cx="6" cy="6" r="6" fill="#F1F0F9"/>
<path fill-rule="evenodd" clip-rule="evenodd" d="M8.10228 4.604C8.2974 4.4086 8.2974 4.09178 8.10228 3.89637C7.90716 3.70097 7.59082 3.70097 7.3957 3.89637L6.00258 5.29156L4.60461 3.89704C4.4091 3.70202 4.09213 3.70202 3.89663 3.89704C3.70112 4.09206 3.70112 4.40825 3.89663 4.60327L5.296 5.99919L3.90295 7.39432C3.70783 7.58972 3.70783 7.90654 3.90295 8.10195C4.09806 8.29736 4.41441 8.29736 4.60953 8.10195L6.00398 6.70542L7.39646 8.09447C7.59196 8.28949 7.90894 8.28949 8.10444 8.09447C8.29994 7.89945 8.29994 7.58325 8.10444 7.38823L6.71056 5.99779L8.10228 4.604Z" fill="#737098"/>
</svg>
